<svg width="250" height="250" viewBox="0 0 250 250" fill="none" xmlns="http://www.w3.org/2000/svg">
<path d="M237.5 58.3333H191.667V45.8333C191.648 29.7328 178.601 16.6849 162.5 16.6667H87.5C71.3995 16.6849 58.3516 29.7328 58.3333 45.8333V58.3333H12.5C5.59635 58.3333 0 63.9297 0 70.8333V154.167C0.021875 159.445 3.35677 164.141 8.33333 165.9V220.833C8.33333 227.737 13.9297 233.333 20.8333 233.333H229.167C236.07 233.333 241.667 227.737 241.667 220.833V165.9C246.643 164.141 249.978 159.445 250 154.167V70.8333C250 63.9297 244.404 58.3333 237.5 58.3333ZM66.6667 45.8333C66.6802 34.3333 76 25.0135 87.5 25H162.5C174 25.0135 183.32 34.3333 183.333 45.8333V58.3333H174.833L175 45.8333C174.986 38.9354 169.398 33.3469 162.5 33.3333H87.3458C80.4479 33.3469 74.8594 38.9354 74.8458 45.8333V45.875L74.9583 58.3333H66.6667V45.8333ZM166.667 45.775L166.5 58.3333H83.2917L83.1625 45.8333C83.1625 43.5323 85.0281 41.6667 87.3292 41.6667H162.5C164.779 41.6667 166.635 43.4963 166.667 45.775ZM233.333 220.833C233.333 223.134 231.468 225 229.167 225H20.8333C18.5323 225 16.6667 223.134 16.6667 220.833V166.667H45.8333V179.167C45.8333 181.468 47.699 183.333 50 183.333H66.6667C68.9677 183.333 70.8333 181.468 70.8333 179.167V166.667H179.167V179.167C179.167 181.468 181.032 183.333 183.333 183.333H200C202.301 183.333 204.167 181.468 204.167 179.167V166.667H233.333V220.833ZM54.1667 175V154.167C54.1646 153.043 54.6276 151.969 55.4458 151.2C56.2036 150.421 57.2469 149.987 58.3333 150C60.6344 150 62.5 151.866 62.5 154.167V162.5V175H54.1667ZM187.5 175V154.167C187.5 151.866 189.366 150 191.667 150C192.791 149.996 193.866 150.458 194.637 151.275C195.41 152.038 195.842 153.081 195.833 154.167V162.5V175H187.5ZM241.667 154.167C241.667 156.468 239.801 158.333 237.5 158.333H204.167V154.167C204.137 147.276 198.558 141.696 191.667 141.667C184.763 141.667 179.167 147.263 179.167 154.167V158.333H70.8333V154.167C70.8333 147.263 65.237 141.667 58.3333 141.667C51.4458 141.705 45.8719 147.279 45.8333 154.167V158.333H12.5C10.199 158.333 8.33333 156.468 8.33333 154.167V70.8333C8.33333 68.5323 10.199 66.6667 12.5 66.6667H237.5C239.801 66.6667 241.667 68.5323 241.667 70.8333V154.167Z" fill="#258AFF"/>
</svg>
