<svg width="41" height="40" viewBox="0 0 41 40" fill="none" xmlns="http://www.w3.org/2000/svg">
<g clip-path="url(#clip0)">
<path d="M36.9624 15.9752C36.6995 7.12165 29.4161 0 20.5 0C11.5838 0 4.30043 7.12165 4.03745 15.9752L2.85291 17.1598V25.1932L4.02938 26.3696V31.8431C4.02938 35.0435 6.63298 37.6471 9.8333 37.6471H11.2906C11.7762 39.0164 13.0839 40 14.6176 40H16.9706C18.5053 40 19.8137 39.015 20.2986 37.6442C20.3658 37.6454 20.4331 37.6471 20.5 37.6471C26.1814 37.6471 30.9351 33.5987 32.0281 28.2353H35.1049L38.147 25.1932V17.1598L36.9624 15.9752ZM20.5 2.35294C27.4828 2.35294 33.2969 7.44933 34.4204 14.1176H32.0281C30.9351 8.7542 26.1814 4.70588 20.5 4.70588C14.8186 4.70588 10.0648 8.7542 8.97181 14.1176H6.57949C7.70302 7.44933 13.5171 2.35294 20.5 2.35294ZM29.6139 14.1176C25.8109 14.1063 23.1246 14.3379 20.9098 11.1004L19.8344 9.52839L18.9102 11.1938C17.5635 13.6204 15.7499 14.1176 13.4411 14.1176H11.386C12.4335 10.0629 16.1225 7.05882 20.5 7.05882C24.8775 7.05882 28.5665 10.0629 29.6139 14.1176ZM8.73526 25.8824H6.86961L5.20585 24.2186V18.1344L6.86961 16.4706H8.73526V25.8824ZM6.38232 31.8431V28.2353H8.96953C9.41244 30.4294 10.4721 32.4435 12.042 34.0611C11.7129 34.4127 11.4548 34.8311 11.2906 35.2941H9.8333C7.9304 35.2941 6.38232 33.746 6.38232 31.8431ZM16.9706 37.6471H14.6176C13.9688 37.6471 13.4411 37.1194 13.4411 36.4706C13.4411 35.8219 13.9688 35.2941 14.6176 35.2941H16.9706C17.6193 35.2941 18.147 35.8219 18.147 36.4706C18.147 37.1194 17.6193 37.6471 16.9706 37.6471ZM29.9117 25.8824C29.9117 31.072 25.6896 35.2941 20.5 35.2941C20.4325 35.2941 20.3645 35.2928 20.2966 35.2912C19.8102 33.9234 18.5032 32.9412 16.9706 32.9412C14.5549 32.9465 14.5934 32.9291 14.2923 32.9568C12.2498 31.1665 11.0882 28.6166 11.0882 25.8824V16.4706H13.4411C15.5233 16.4706 18.0589 16.1273 20.0218 13.7384C22.6116 16.4524 25.7764 16.4706 28.6175 16.4706H29.9117V25.8824ZM35.7941 24.2186L34.1303 25.8824H32.2647V16.4706H34.1303L35.7941 18.1344V24.2186Z" fill="#258AFF"/>
</g>
<defs>
<clipPath id="clip0">
<rect width="40" height="40" fill="white" transform="translate(0.5)"/>
</clipPath>
</defs>
</svg>
