<svg width="250" height="250" viewBox="0 0 250 250" fill="none" xmlns="http://www.w3.org/2000/svg">
<g clip-path="url(#clip0)">
<path d="M214.862 -1.33514e-05H204.113C199.388 -1.33514e-05 199.388 7.32526 204.113 7.32526H214.862C225.962 7.32526 234.993 16.3236 234.993 27.3838V112.148C234.993 123.209 225.962 132.207 214.862 132.207H202.671C201.867 132.207 201.085 132.472 200.445 132.961L178.076 150.072V135.87C178.076 133.847 176.437 132.207 174.413 132.207H129.837C126.186 132.207 122.678 131.244 119.584 129.412V88.2964C119.584 80.5951 115.661 73.7909 109.705 69.7654V27.3838C109.705 16.3236 118.736 7.32526 129.837 7.32526H181.16C185.885 7.32526 185.885 -1.33514e-05 181.16 -1.33514e-05H129.837C114.697 -1.33514e-05 102.38 12.2845 102.38 27.3838V66.5462C100.703 66.1458 98.9552 65.9275 97.1571 65.9275H30.1083C17.7428 65.9275 7.68225 75.9621 7.68225 88.2964V96.2053C7.68225 100.93 15.0075 100.93 15.0075 96.2053V88.2964C15.0075 80.0013 21.7815 73.2528 30.1083 73.2528H97.1576C105.484 73.2528 112.259 80.0013 112.259 88.2964V130.87C112.215 131.193 112.217 131.519 112.259 131.84V155.14C112.259 155.601 112.231 156.059 112.19 156.515H104.636C96.3132 156.515 89.3747 162.523 87.9361 170.418C87.603 170.543 87.2831 170.719 86.9867 170.947L70.6049 183.596V173.846C70.6049 171.824 68.9655 170.184 66.9423 170.184H30.1083C21.7815 170.184 15.0075 163.435 15.0075 155.14V118.181C15.0075 113.457 7.68225 113.457 7.68225 118.181V155.141C7.68225 167.475 17.7428 177.51 30.1083 177.51H63.2801V191.052C63.2801 193.989 66.8475 195.752 69.1814 193.951L87.6582 179.685V220.889C87.6582 230.229 95.275 237.827 104.637 237.827H127.113V246.374C127.113 249.31 130.681 251.075 133.014 249.273L147.838 237.827H152.218C161.58 237.827 169.196 230.229 169.196 220.889V214.386C169.196 209.662 161.871 209.662 161.871 214.386V220.889C161.871 226.19 157.541 230.502 152.218 230.502H146.589C145.778 230.502 144.991 230.77 144.35 231.265L134.438 238.918V234.164C134.438 232.141 132.799 230.501 130.775 230.501H104.636C99.3137 230.501 94.983 226.189 94.983 220.889V173.453C94.983 168.153 99.3132 163.841 104.636 163.841H152.218C157.54 163.841 161.871 168.153 161.871 173.453V191.434C161.871 196.158 169.196 196.158 169.196 191.434V173.454C169.196 164.114 161.58 156.516 152.218 156.516H119.542C119.57 156.059 119.584 137.559 119.584 137.559C122.814 138.858 126.276 139.533 129.837 139.533H170.751V157.485C170.751 160.415 174.304 162.18 176.639 160.394L203.912 139.533H214.862C230.002 139.533 242.319 127.248 242.319 112.149V27.3838C242.318 12.2845 230.001 -1.33514e-05 214.862 -1.33514e-05V-1.33514e-05Z" fill="#258AFF"/>
<path d="M181.501 27.0605C176.85 25.8733 172.111 29.5477 172.111 34.3531C172.111 39.6033 170.198 44.6632 166.726 48.5978L156.635 60.0169C155.982 59.0144 154.852 58.3507 153.567 58.3507H133.866C131.843 58.3507 130.204 59.9906 130.204 62.0133V106.339C130.204 108.361 131.843 110.001 133.866 110.001H153.567C155.047 110.001 156.318 109.122 156.896 107.859C160.885 110.296 165.506 111.613 170.209 111.613H205.024C210.344 111.613 214.733 106.997 214.484 101.69C214.373 99.3405 214.494 67.7866 214.494 67.0858C214.494 61.8644 210.246 57.6157 205.035 57.6157L186.93 57.5615L187.68 55.7864C191.106 47.6734 190.542 38.2657 186.173 30.6196C185.153 28.8332 183.493 27.5699 181.501 27.0605C183.493 27.5699 179.507 26.5517 181.501 27.0605C183.493 27.5699 176.851 25.8733 181.501 27.0605ZM149.904 102.676H137.529V65.676H149.904V102.676ZM205.024 64.9405C206.207 64.9405 207.169 65.9026 207.169 67.0853C207.169 67.7822 207.162 69.6736 207.152 72.2379C207.098 86.3962 207.062 99.8054 207.166 102.034C207.204 102.839 206.813 103.375 206.577 103.623C206.167 104.052 205.616 104.288 205.024 104.288H170.209C166.059 104.288 161.997 102.849 158.771 100.238L157.229 98.9899V70.4061L172.217 53.4462C176.873 48.17 179.437 41.3892 179.437 34.3526C179.437 34.1455 179.719 34.0918 179.813 34.253C183.057 39.9291 183.475 46.913 180.932 52.9358L178.041 59.782C177.564 60.9116 177.684 62.2043 178.36 63.2269C179.036 64.2495 180.179 64.8658 181.404 64.8697L205.024 64.9405Z" fill="#258AFF"/>
<path d="M39.0442 127.215C37.021 127.215 35.3816 128.855 35.3816 130.877C35.3816 132.9 37.021 134.54 39.0442 134.54H49.8407L47.8238 146.738C47.4937 148.734 48.8444 150.619 50.8399 150.95C51.0425 150.983 51.2432 150.999 51.4415 150.999C53.2015 150.999 54.754 149.727 55.0509 147.933L57.2651 134.54H66.1008L64.084 146.739C63.7538 148.734 65.1046 150.62 67.1 150.95C67.3027 150.984 67.5034 151 67.7017 151C69.4617 151 71.0142 149.728 71.3111 147.934L73.5253 134.541H88.2212C90.2445 134.541 91.8839 132.901 91.8839 130.878C91.8839 128.856 90.2445 127.216 88.2212 127.216H74.7364L76.2136 118.281H88.2212C90.2445 118.281 91.8839 116.641 91.8839 114.618C91.8839 112.595 90.2445 110.955 88.2212 110.955H77.4248L79.4417 98.7569C79.7718 96.7615 78.421 94.876 76.4256 94.5459C74.4277 94.2148 72.5447 95.5665 72.2145 97.5619L70.0003 110.955H61.1646L63.1815 98.7564C63.5116 96.761 62.1608 94.8755 60.1654 94.5454C58.1651 94.2143 56.285 95.566 55.9544 97.5614L53.7402 110.954H39.0442C37.021 110.954 35.3816 112.594 35.3816 114.617C35.3816 116.64 37.021 118.28 39.0442 118.28H52.5291L51.0518 127.215H39.0442ZM59.954 118.28H68.7897L67.3125 127.215H58.4767L59.954 118.28Z" fill="#258AFF"/>
<path d="M128.383 182.739C125.425 180.304 121.491 179.344 117.544 180.303C112.486 181.532 107.382 186.26 107.382 194.053C107.382 198.904 109.152 203.115 112.794 206.926C115.769 210.039 120.061 213 126.712 216.525C127.248 216.81 127.838 216.952 128.427 216.952C129.017 216.952 129.606 216.81 130.143 216.525C141.745 210.375 149.472 204.199 149.472 194.053C149.472 186.217 144.187 181.537 138.949 180.376C135.014 179.503 131.199 180.429 128.383 182.739ZM142.146 194.053C142.146 199.526 138.516 203.573 128.427 209.127C118.337 203.572 114.707 199.525 114.707 194.053C114.707 189.982 117.065 187.958 119.272 187.422C119.678 187.323 120.114 187.267 120.562 187.267C122.222 187.267 124.047 188.034 125.172 190.216C125.813 191.457 127.109 192.227 128.5 192.198C129.896 192.17 131.155 191.35 131.746 190.085C132.931 187.544 135.423 187.097 137.361 187.528C139.675 188.04 142.146 190.024 142.146 194.053Z" fill="#258AFF"/>
</g>
<defs>
<clipPath id="clip0">
<rect width="250" height="250" fill="white"/>
</clipPath>
</defs>
</svg>
