<svg width="250" height="250" viewBox="0 0 250 250" fill="none" xmlns="http://www.w3.org/2000/svg">
<path d="M242.676 0H213.379C209.334 0 206.055 3.2793 206.055 7.32422V14.6484H145.713C142.689 6.12402 134.548 0 125 0C115.452 0 107.311 6.12402 104.287 14.6484H43.9453V7.32422C43.9453 3.2793 40.666 0 36.6211 0H7.32422C3.2793 0 0 3.2793 0 7.32422V36.6211C0 40.666 3.2793 43.9453 7.32422 43.9453H36.6211C40.666 43.9453 43.9453 40.666 43.9453 36.6211V29.1992H74.4028C47.979 45.9346 31.9165 74.2065 29.9844 104.22C21.3564 107.187 15.1367 115.378 15.1367 125C15.1367 137.116 24.9937 146.973 37.1094 146.973C49.2251 146.973 59.082 137.116 59.082 125C59.082 115.537 53.0688 107.452 44.6631 104.365C47.2637 69.8696 72.1035 40.1592 105.32 31.7295C108.921 38.9619 116.387 43.9453 125 43.9453C133.613 43.9453 141.079 38.9619 144.68 31.73C177.897 40.1597 202.736 69.8701 205.337 104.366C196.931 107.452 190.918 115.537 190.918 125C190.918 137.116 200.775 146.973 212.891 146.973C225.006 146.973 234.863 137.116 234.863 125C234.863 115.378 228.644 107.187 220.016 104.22C218.08 74.1465 201.969 45.9995 175.597 29.2969H206.055V36.6211C206.055 40.666 209.334 43.9453 213.379 43.9453H242.676C246.721 43.9453 250 40.666 250 36.6211V7.32422C250 3.2793 246.721 0 242.676 0ZM29.2969 29.2969H14.6484V14.6484H29.2969V29.2969ZM37.1094 132.324C33.0708 132.324 29.7852 129.039 29.7852 125C29.7852 120.961 33.0708 117.676 37.1094 117.676C41.1479 117.676 44.4336 120.961 44.4336 125C44.4336 129.039 41.1479 132.324 37.1094 132.324ZM125 29.2969C120.961 29.2969 117.676 26.0112 117.676 21.9727C117.676 17.9341 120.961 14.6484 125 14.6484C129.039 14.6484 132.324 17.9341 132.324 21.9727C132.324 26.0112 129.039 29.2969 125 29.2969ZM212.891 117.676C216.929 117.676 220.215 120.961 220.215 125C220.215 129.039 216.929 132.324 212.891 132.324C208.852 132.324 205.566 129.039 205.566 125C205.566 120.961 208.852 117.676 212.891 117.676ZM235.352 29.2969H220.703V14.6484H235.352V29.2969Z" fill="#258AFF"/>
<path d="M189.688 150.234L131.094 62.3437C131.092 62.3408 131.089 62.3379 131.087 62.3345C131.066 62.3032 131.043 62.2734 131.022 62.2427C130.921 62.0967 130.815 61.956 130.705 61.8188C127.619 57.9839 121.742 58.2427 118.978 62.2427C118.957 62.2734 118.934 62.3032 118.913 62.3345C118.911 62.3379 118.908 62.3403 118.906 62.3437L60.3125 150.234C58.3755 153.139 58.7588 157.007 61.2275 159.476C75.8403 174.089 85.1411 193.19 87.6748 213.627C86.5376 214.546 85.4395 215.531 84.3984 216.596C77.5191 223.633 73.7305 232.896 73.7305 242.676C73.7305 246.721 77.0098 250 81.0547 250H168.945C172.99 250 176.27 246.721 176.27 242.676C176.27 232.896 172.481 223.633 165.602 216.596C164.561 215.53 163.463 214.546 162.325 213.626C164.858 193.189 174.159 174.087 188.772 159.476C191.241 157.007 191.625 153.139 189.688 150.234ZM125 146.973C129.039 146.973 132.324 150.258 132.324 154.297C132.324 158.335 129.039 161.621 125 161.621C120.961 161.621 117.676 158.335 117.676 154.297C117.676 150.258 120.961 146.973 125 146.973ZM89.6279 235.352C92.6753 226.644 100.936 220.215 110.352 220.215H139.648C149.064 220.215 157.325 226.644 160.372 235.352H89.6279ZM148.557 206.681C145.676 205.946 142.69 205.566 139.648 205.566H110.352C107.31 205.566 104.324 205.946 101.443 206.682C98.0151 186.941 89.1133 168.488 75.7349 153.508L117.676 90.5967V133.584C109.151 136.608 103.027 144.749 103.027 154.297C103.027 166.413 112.884 176.27 125 176.27C137.116 176.27 146.973 166.413 146.973 154.297C146.973 144.749 140.849 136.608 132.324 133.584V90.5967L174.266 153.508C160.887 168.486 151.984 186.94 148.557 206.681Z" fill="#258AFF"/>
</svg>
