<svg width="250" height="250" viewBox="0 0 250 250" fill="none" xmlns="http://www.w3.org/2000/svg">
<path d="M68.9278 57.1499C68.9278 55.2959 70.6482 53.8483 72.0043 53.8483C72.321 53.8483 72.6376 53.894 72.8626 54.0752L84.3506 61.5368C85.3901 62.2158 85.7525 63.3011 85.7525 64.0697C85.7525 64.8384 85.3901 65.9237 84.3506 66.6027L72.8626 74.0643C72.6376 74.2455 72.321 74.2912 72.0043 74.2912C70.6482 74.2912 68.9278 72.8436 68.9278 70.9896C68.9278 70.2209 69.2444 69.5419 69.7422 69.2253L77.7035 64.0697L69.7422 58.9142C69.2463 58.5976 68.9278 57.9185 68.9278 57.1499Z" fill="#258AFF"/>
<path d="M46.1788 41.6832C46.9932 41.6832 47.718 42.0437 48.0785 42.8143L63.9534 75.4204C64.0888 75.6912 64.1804 76.0078 64.1804 76.2806C64.1804 77.4097 63.1847 78.6762 61.6455 78.6762C60.7872 78.6762 59.927 78.2242 59.6104 77.5471L43.6916 44.939C43.5562 44.6682 43.5104 44.3516 43.5104 44.0788C43.5123 42.6331 44.9142 41.6832 46.1788 41.6832Z" fill="#258AFF"/>
<path d="M23.3402 61.5368L34.8263 54.0752C35.0533 53.894 35.3699 53.8483 35.6865 53.8483C37.0426 53.8483 38.7611 55.2959 38.7611 57.1499C38.7611 57.9185 38.4445 58.5976 37.9467 58.9142L29.9873 64.0697L37.9467 69.2253C38.4445 69.5419 38.7611 70.2209 38.7611 70.9896C38.7611 72.8436 37.0426 74.2912 35.6865 74.2912C35.3699 74.2912 35.0533 74.2455 34.8263 74.0643L23.3402 66.6027C22.2988 65.9237 21.9383 64.8384 21.9383 64.0697C21.9383 63.3011 22.2988 62.2158 23.3402 61.5368Z" fill="#258AFF"/>
<path d="M17.7069 18.2076H96.5567C100.631 7.57217 110.948 0 123 0H175.887C191.491 0 204.188 12.6972 204.188 28.3012V60.4382C207.343 63.1561 208.81 67.4076 208.034 71.6877L205.955 83.128C205.207 87.0571 203.12 89.077 201.503 90.0784C199.693 91.198 197.684 91.568 195.84 91.5775V93.6108C195.84 103.926 189.822 115.294 179.33 124.802C177.354 126.591 175.3 128.241 173.205 129.732V135.866C173.205 137.735 174.539 139.339 176.377 139.681C176.463 139.696 176.547 139.715 176.631 139.736C176.694 139.753 182.981 141.392 191.199 143.723H218.053C221.072 143.723 223.985 144.991 226.043 147.2C228.101 149.408 229.158 152.405 228.942 155.416L228.87 156.45C240.88 162.474 248.437 173.273 249.158 185.547C249.16 185.598 249.162 185.65 249.164 185.701L249.997 236.111C250.043 239.807 248.635 243.292 246.039 245.922C243.44 248.552 239.974 250 236.276 250H62.6097C58.9133 250 55.4457 248.552 52.8479 245.922C50.2501 243.292 48.8425 239.809 48.8883 236.095L49.7218 185.701C49.7237 185.65 49.7256 185.598 49.7294 185.547C50.4695 172.918 58.446 161.852 71.0688 155.941C71.2996 155.832 71.5419 155.722 71.7917 155.609L71.7784 155.416C71.5647 152.405 72.6214 149.41 74.6775 147.2C76.7356 144.991 79.6481 143.723 82.6674 143.723H107.686C115.903 141.392 122.191 139.753 122.254 139.738C122.338 139.715 122.422 139.696 122.508 139.681C124.347 139.339 125.68 137.735 125.68 135.866V129.734C123.586 128.241 121.532 126.591 119.556 124.802C112.887 118.759 108.026 111.965 105.369 105.167H81.5745L85.7306 121.943C86.423 124.741 85.3129 127.567 82.902 129.145C81.7691 129.887 80.4988 130.255 79.2342 130.255C77.8037 130.255 76.3808 129.786 75.1677 128.853L44.3335 105.167H17.7069C8.05766 105.167 0.208923 97.3186 0.208923 87.6694V35.7056C0.208923 26.0582 8.05766 18.2076 17.7069 18.2076ZM103.038 66.7648C101.638 66.288 100.312 66.0915 99.4483 66.0133C98.2981 67.0338 97.7565 68.7141 98.0578 70.3773L100.125 81.7604C100.427 83.3492 101.037 83.7269 101.237 83.8509C101.663 84.1141 102.29 84.2495 103.042 84.2571L103.038 66.7648ZM196.864 28.3012C196.864 16.7351 187.453 7.32422 175.887 7.32422H122.998C111.432 7.32422 102.021 16.7351 102.021 28.3012V58.9848C103.833 59.3052 106.09 59.9194 108.293 61.0943V38.7802C108.293 30.756 114.822 24.2271 122.846 24.2271H132.743C136.174 24.2271 139.525 25.423 142.182 27.5936L143.151 28.3871C144.921 29.8347 147.157 30.632 149.444 30.632C151.731 30.632 153.964 29.8347 155.734 28.389L156.705 27.5936C159.36 25.423 162.713 24.2271 166.144 24.2271H176.04C184.064 24.2271 190.593 30.7541 190.593 38.7802V61.0924C192.796 59.9194 195.052 59.3033 196.864 58.9848V28.3012ZM197.648 83.8509C197.848 83.7269 198.459 83.3492 198.754 81.7909L200.828 70.3793C201.129 68.716 200.587 67.0376 199.441 66.0152C198.577 66.0934 197.249 66.2861 195.848 66.7629L195.844 84.2571C196.593 84.2495 197.221 84.1141 197.648 83.8509ZM230.05 240.023C230.05 240.942 229.924 241.831 229.692 242.676H236.276C238 242.676 239.616 242.001 240.829 240.774C242.04 239.548 242.694 237.923 242.675 236.216L241.841 185.902C241.3 177.109 236.426 169.485 228.295 164.499L223.825 227.23C223.743 228.382 223.479 229.483 223.067 230.507C227.111 231.781 230.05 235.565 230.05 240.023ZM76.8977 227.23L72.3544 163.488C63.1648 168.419 57.6239 176.489 57.0441 185.902L56.2106 236.2C56.1915 237.923 56.8476 239.548 58.0569 240.774C59.27 242.001 60.8855 242.676 62.6097 242.676H69.1939C68.9593 241.831 68.8353 240.942 68.8353 240.023C68.8353 234.962 72.6214 230.772 77.5099 230.133C77.18 229.216 76.9683 228.243 76.8977 227.23ZM76.1595 240.023C76.1595 241.486 77.3497 242.676 78.8108 242.676H220.075C221.536 242.676 222.726 241.486 222.726 240.023C222.726 238.562 221.536 237.371 220.075 237.371H78.8108C77.3497 237.371 76.1595 238.562 76.1595 240.023ZM80.0372 152.191C79.3505 152.929 79.011 153.889 79.0835 154.896L84.2028 226.711C84.3363 228.582 85.9099 230.047 87.7867 230.047H212.936C214.81 230.047 216.384 228.582 216.519 226.709L221.637 154.896C221.709 153.889 221.37 152.929 220.683 152.191C219.995 151.453 219.062 151.047 218.053 151.047H82.6674C81.6603 151.047 80.7257 151.453 80.0372 152.191ZM129.787 143.723H169.099C167.096 141.685 165.881 138.897 165.881 135.866V134.228C160.108 137.217 154.37 138.893 149.444 138.893C144.517 138.893 138.78 137.217 133.004 134.228V135.866C133.004 138.897 131.789 141.685 129.787 143.723ZM124.475 119.373C132.651 126.781 142.451 131.569 149.444 131.569C156.434 131.569 166.234 126.781 174.411 119.373C183.375 111.254 188.516 101.862 188.516 93.6089L188.523 70.5376C188.476 70.5376 188.428 70.5395 188.38 70.5395C187.718 70.5395 187.051 70.4098 186.412 70.1427C184.503 69.3455 183.269 67.4934 183.269 65.4259V38.7802C183.269 34.7939 180.026 31.5514 176.04 31.5514H166.143C164.397 31.5514 162.692 32.1598 161.342 33.2642L160.369 34.0595C157.294 36.5715 153.415 37.9562 149.444 37.9562C145.473 37.9562 141.591 36.5715 138.517 34.0576L137.546 33.2642C136.195 32.1598 134.488 31.5514 132.743 31.5514H122.848C118.861 31.5514 115.617 34.7939 115.617 38.7802V65.4259C115.617 67.4953 114.385 69.3455 112.474 70.1427C111.791 70.4288 111.072 70.5566 110.364 70.5376L110.37 93.6108C110.368 101.862 115.51 111.254 124.475 119.373ZM7.53314 87.6694C7.53314 93.2789 12.0955 97.8432 17.7069 97.8432H45.5771C46.3839 97.8432 47.1678 98.1102 47.8068 98.6023L78.1832 121.935L73.3405 102.386C73.0696 101.294 73.3157 100.136 74.01 99.2489C74.7042 98.362 75.7685 97.8432 76.8939 97.8432H103.37C103.154 96.4184 103.044 95.005 103.044 93.6108V91.5775C101.201 91.568 99.1927 91.198 97.3826 90.0784C95.7633 89.077 93.6766 87.0571 92.9251 83.0994L90.8519 71.6877C90.0737 67.4076 91.5442 63.1542 94.6971 60.4382V28.3012C94.6971 27.3685 94.7428 26.4435 94.8325 25.5318H17.7069C12.0955 25.5318 7.53314 30.0961 7.53314 35.7056V87.6694Z" fill="#258AFF"/>
<path d="M149.445 207.211C141.853 207.211 135.677 201.035 135.677 193.443C135.677 185.852 141.853 179.676 149.445 179.676C157.036 179.676 163.212 185.852 163.212 193.443C163.212 201.035 157.036 207.211 149.445 207.211ZM149.445 187C145.891 187 143.002 189.892 143.002 193.443C143.002 196.997 145.891 199.886 149.445 199.886C152.996 199.886 155.888 196.997 155.888 193.443C155.888 189.892 152.996 187 149.445 187Z" fill="#258AFF"/>
</svg>
